<svg xmlns="http://www.w3.org/2000/svg" xmlns:xlink="http://www.w3.org/1999/xlink" viewBox="0,0,256,256" width="100px" height="100px" fill-rule="nonzero"><g fill="#ffffff" fill-rule="nonzero" stroke="none" stroke-width="1" stroke-linecap="butt" stroke-linejoin="miter" stroke-miterlimit="10" stroke-dasharray="" stroke-dashoffset="0" font-family="none" font-weight="none" font-size="none" text-anchor="none" style="mix-blend-mode: normal"><g transform="scale(5.12,5.12)"><path d="M12.74414,4c-4.81828,0 -8.74414,3.92586 -8.74414,8.74414v24.51172c0,4.81828 3.92586,8.74414 8.74414,8.74414h24.51172c4.78335,0 8.68192,-3.87112 8.73828,-8.64062c0.00336,-0.03049 0.00531,-0.06112 0.00586,-0.0918c0.00016,-0.01042 0.00016,-0.02083 0,-0.03125v-24.49219c0,-4.81828 -3.92673,-8.74414 -8.74414,-8.74414zM12.74414,6h6.06836c-0.03109,0.04004 -0.06775,0.0765 -0.09766,0.11719c-0.53712,0.73071 -0.93944,1.59835 -1.30664,2.50391c-0.7344,1.8111 -1.34396,3.81639 -1.99219,4.91016c-0.83455,1.40816 -1.80303,3.65306 -2.74805,5.8125c-0.94502,2.15944 -1.90126,4.27006 -2.39453,5.00977c-0.41148,0.61705 -0.58851,1.29192 -0.58008,1.9375l-3.69336,-1.2793v-12.26758c0,-3.73772 3.00642,-6.74414 6.74414,-6.74414zM32.61719,6h4.63867c3.73659,0 6.74414,3.00642 6.74414,6.74414v2.76172c-0.00356,-0.01506 -0.00747,-0.03004 -0.01172,-0.04492c-1.1513,-3.61262 -3.8492,-5.80111 -8.22266,-8.23047c-0.9152,-0.50837 -1.99482,-0.90956 -3.14844,-1.23047zM21.24805,6.57813c0.1319,0.00217 2.35245,0.03549 5.2207,0.35547c2.95192,0.32932 6.4479,1.00158 8.32617,2.04492c4.12995,2.2941 6.20076,4.02087 7.18945,6.87305c-0.73074,2.34034 -0.96025,3.61894 -1.27539,5.01367c-0.84213,-1.08518 -2.21984,-2.02438 -4.67969,-1.98242c-1.44796,0.02465 -2.56723,-0.49582 -3.19727,-0.86328c0.2932,-0.41519 0.49895,-0.87974 0.64258,-1.30469c0.26437,-0.7822 0.3418,-1.46875 0.3418,-1.46875c0.01796,-0.14271 -0.0264,-0.28625 -0.12175,-0.39394c-0.09535,-0.10769 -0.23246,-0.16911 -0.3763,-0.16856c-0.25664,0.0008 -0.47101,0.19576 -0.49609,0.45117c0,0 -0.06854,0.58997 -0.29492,1.25976c-0.13425,0.39722 -0.33331,0.78909 -0.57031,1.10352c-0.0703,-0.02362 -0.14302,-0.03934 -0.2168,-0.04687c0,0 -0.76285,-0.07657 -1.71289,-0.34961c-0.95004,-0.27304 -2.02492,-0.76736 -2.56836,-1.37891c-0.82081,-0.92315 -1.82958,-1.84424 -3.16992,-2.29687c-1.34034,-0.45264 -2.97048,-0.35219 -4.71094,0.55859c-1.08645,0.56854 -1.84235,1.60757 -2.5293,2.81055c-0.68694,1.20298 -1.28045,2.60577 -1.82617,3.99414c-0.54572,1.38837 -1.04086,2.76132 -1.49219,3.86914c-0.45133,1.10782 -0.93522,1.97716 -1.10742,2.1543c-0.27369,0.28136 -0.40883,0.28393 -0.46875,0.28125c-0.05992,-0.0027 -0.13714,-0.02805 -0.24414,-0.16211c-0.214,-0.26813 -0.35919,-0.8891 0.02734,-1.46875c0.75173,-1.1273 1.61677,-3.1573 2.5625,-5.31836c0.94573,-2.16106 1.93926,-4.41691 2.63672,-5.59375c0.88378,-1.49123 1.44715,-3.50609 2.125,-5.17773c0.33892,-0.83582 0.70104,-1.57592 1.06445,-2.07031c0.3509,-0.47737 0.64811,-0.66706 0.92188,-0.72461zM22.2793,15.16406c0.51032,-0.05485 0.95219,0.01544 1.36914,0.15625c0.83391,0.28161 1.60522,0.93062 2.31641,1.73047c0.10932,0.12303 0.22548,0.23631 0.34375,0.3457c-0.21761,-0.13346 -0.44748,-0.25121 -0.70312,-0.32422c-0.66185,-0.18901 -1.42526,-0.18999 -2.12305,-0.06641c-0.69779,0.12359 -1.34171,0.33311 -1.73242,0.85352c-0.22904,0.30507 -0.25498,0.69153 -0.17578,1.02539c0.0792,0.33386 0.25218,0.64997 0.48828,0.94922c0.47221,0.5985 1.21073,1.13761 2.12109,1.39258c0.2813,0.07878 0.57814,0.10341 0.87695,0.10156c-0.21885,0.33442 -0.31083,0.70714 -0.27148,1.05469c-0.99388,-0.5109 -2.20003,-0.9952 -3.83594,-1.3418c-0.00065,0 -0.0013,0 -0.00195,0c-1.49495,-0.31643 -2.7316,-0.06024 -3.82617,0.38867c0.52063,-1.31861 1.07692,-2.61975 1.66211,-3.64453c0.59962,-1.05005 1.2497,-1.78188 1.71875,-2.02734c0.68527,-0.3586 1.26311,-0.5389 1.77344,-0.59375zM44,16.02734v19.375c-1.3363,-0.73201 -3.39954,-1.54032 -6.12305,-1.55859c0.02346,-0.07274 0.01138,-0.14198 0.0332,-0.21484c1.51946,-3.76857 3.10447,-7.594 3.8418,-8.89844c0.05643,-0.0994 0.09541,-0.20774 0.11523,-0.32031c0.52307,-2.99922 0.78681,-4.09667 2.12305,-8.3457c0.00349,-0.01231 0.00675,-0.02468 0.00977,-0.03711zM26.96484,17.90234c0.81564,0.55335 1.72365,0.89461 2.51172,1.12109c0.99247,0.28523 1.61947,0.34543 1.8125,0.36719c0.30004,0.22876 1.57301,1.14126 3.54688,1.41016c-0.12543,0.00033 -0.25091,-0.00024 -0.375,0.00586c-0.37485,0.01842 -0.73211,0.0687 -1.04297,0.15625c-0.31086,0.08755 -0.60379,0.16402 -0.81445,0.51563c-0.18335,0.30536 -0.16971,0.61785 -0.08789,0.95898c0.08182,0.34114 0.26247,0.71051 0.56055,1.07617c0.09288,0.11394 0.21945,0.22448 0.33594,0.33594c0.01291,0.07547 0.04298,0.14697 0.08789,0.20898c0.29426,0.44924 0.11733,0.82251 -0.17578,1.05469c-0.14656,0.11609 -0.3139,0.16774 -0.44727,0.15625c-0.13336,-0.01149 -0.25696,-0.05927 -0.40234,-0.27734c-0.14682,-0.21998 -0.43954,-0.2876 -0.66797,-0.1543c-0.60388,0.35347 -1.25316,0.44772 -1.86133,0.3418c-0.11789,-0.03545 -0.23611,-0.06756 -0.35352,-0.10352c-0.16208,-0.04964 -0.29859,-0.11454 -0.44727,-0.17187c-0.72767,-0.38342 -1.31049,-1.0908 -1.5293,-2.04492c-0.03222,-0.13956 -0.12274,-0.2586 -0.24861,-0.32695c-0.12587,-0.06835 -0.275,-0.07945 -0.4096,-0.03047c-0.64722,0.23528 -1.01166,0.05497 -1.13281,-0.10156c-0.12116,-0.15653 -0.17073,-0.3679 0.24414,-0.72852c0.82538,-0.71743 2.34766,-0.25586 2.34766,-0.25586c0.17117,0.06952 0.36672,0.039 0.50856,-0.07937c0.14184,-0.11837 0.20686,-0.30531 0.1691,-0.48615c-0.03777,-0.18084 -0.17217,-0.32613 -0.34953,-0.37784c0,0 -0.44963,-0.15896 -1.04883,-0.21094c0.1237,-0.16626 0.22208,-0.35191 0.24805,-0.57617c0.0365,-0.31405 -0.06394,-0.50674 -0.18164,-0.73828c-0.11771,-0.23154 -0.28291,-0.47432 -0.48633,-0.71484c-0.09451,-0.11174 -0.19957,-0.22205 -0.31055,-0.33008zM24.5332,17.92578c0.29122,0.00744 0.5693,0.04438 0.79688,0.10938c0.25025,0.07147 0.50328,0.23881 0.74219,0.43359c-0.33062,0.15179 -0.54172,0.48311 -0.53961,0.8469c0.00211,0.36379 0.21703,0.69264 0.54938,0.8406c-0.53473,0.17727 -1.20557,0.22597 -1.62891,0.10742c-0.68563,-0.19203 -1.27193,-0.62608 -1.60547,-1.04883c-0.16677,-0.21137 -0.26543,-0.41976 -0.29883,-0.56055c-0.0334,-0.14079 -0.01046,-0.17943 0,-0.19336c0.08829,-0.1176 0.54471,-0.37104 1.10742,-0.4707c0.28136,-0.04983 0.58573,-0.07189 0.87695,-0.06445zM35.69727,20.86719c0.12372,0.00355 0.2391,0.01781 0.36719,0.01562c2.52247,-0.04302 3.16329,0.7579 3.49219,1.51563c0.3289,0.75773 0.18555,1.59375 0.18555,1.59375c-0.02774,0.12717 -0.0304,0.25853 -0.00781,0.38672c-0.48481,0.91318 -1.28355,2.93164 -1.97266,4.52148c-0.17831,-0.31647 -0.34774,-0.63904 -0.62305,-0.90234c-0.80763,-0.77283 -1.93569,-1.18915 -3.25586,-1.62891c-0.16941,-0.05643 -0.36198,-0.1086 -0.53711,-0.16406c0.21899,-0.06372 0.42354,-0.16913 0.59961,-0.30859c0.3587,-0.28412 0.61012,-0.73223 0.66602,-1.22266c0.5141,0.25831 1.11368,0.48569 1.85742,0.64453c0.45974,0.09819 0.93391,-0.13398 1.17188,-0.47266c0.23796,-0.33867 0.32828,-0.75381 0.32813,-1.19141c-0.0003,-0.87518 -0.40047,-1.90871 -1.36328,-2.47852c-0.27031,-0.15992 -0.58151,-0.25231 -0.9082,-0.30859zM35.45508,21.85938c0.28652,0.04466 0.5243,0.10891 0.64063,0.17773c0.60019,0.3552 0.87285,1.05237 0.87305,1.61719c0.0001,0.28241 -0.07713,0.51653 -0.14648,0.61523c-0.06935,0.0987 -0.04478,0.09357 -0.14453,0.07227c-0.75238,-0.16068 -1.33232,-0.38527 -1.78516,-0.63281c0.6638,-0.3573 0.91498,-1.18324 0.5625,-1.84961zM19.34766,22.85938c0.35978,0.00345 0.75462,0.04663 1.18945,0.13867c2.28511,0.48415 3.51206,1.17439 4.63086,1.90625c1.11881,0.73186 2.17242,1.57391 3.83789,2.08398c1.50612,0.46128 3.01226,0.86635 4.24609,1.27734c1.23383,0.411 2.19753,0.88456 2.50391,1.17773c0.5894,0.5637 0.68544,1.84067 0.29297,3.37891c-1.83392,4.54595 -3.46049,8.8401 -4.19531,11.12109c-0.56091,-0.00047 -0.75739,-0.00063 -1.0957,0.00977l4.17578,-11.96484c0.17537,-0.50319 -0.07459,-1.05551 -0.56836,-1.25586c0,0 -3.14919,-1.28324 -6.46289,-2.60156c-1.65685,-0.65916 -3.35476,-1.32597 -4.72461,-1.84961c-0.68493,-0.26182 -1.28819,-0.48846 -1.76758,-0.66016c-0.47938,-0.17169 -0.7854,-0.28267 -1.08594,-0.34961c-0.73982,-0.16478 -1.55725,-0.25328 -2.2793,0.24023c-0.72204,0.49351 -0.99755,1.32387 -1.13281,2.32617c-0.10342,0.76633 -0.53004,2.75606 -1.16016,4.65234c-0.63012,1.89628 -1.59748,3.74793 -2.19922,4.2207c-0.6872,0.53992 -1.4601,0.46704 -1.82422,0.19531c-0.18206,-0.13586 -0.28985,-0.29406 -0.32031,-0.58398c-0.03046,-0.28992 0.04026,-0.74766 0.41406,-1.37695c1.8852,-3.17552 2.73514,-6.02443 3.36328,-8.39258c0.27044,-1.01959 0.83478,-2.1192 1.67773,-2.82227c0.42148,-0.35153 0.90614,-0.62619 1.50195,-0.76758c0.29791,-0.07069 0.62264,-0.10697 0.98242,-0.10352zM26.83789,23.48828c0.02144,0.06119 0.05618,0.11242 0.08008,0.17188c-0.08024,-0.05402 -0.15725,-0.10247 -0.24023,-0.1582c0.0541,-0.0069 0.10534,-0.00396 0.16016,-0.01367zM32.02344,25.78516c0.00779,0.00655 0.01566,0.0129 0.02344,0.01953c-0.01484,-0.00437 -0.02811,-0.0093 -0.04297,-0.01367c0.00633,-0.00299 0.01321,-0.00283 0.01953,-0.00586zM6,27.12695l6.22852,2.1582c-0.50859,1.45245 -1.13658,2.97373 -2.125,4.63867c-0.5362,0.90271 -0.7696,1.78872 -0.68359,2.60742c0.08601,0.8187 0.51551,1.53388 1.11133,1.97852c0.50962,0.38032 1.14245,0.49567 1.77734,0.52344c0.01301,0.01935 0.02669,0.03824 0.04101,0.05664c0,0 2.15427,2.81035 6.64063,4.91016h-6.24609c-3.73772,0 -6.74414,-3.00642 -6.74414,-6.74414zM19.32227,27.14844c0.11006,-0.00013 0.28981,0.01456 0.56641,0.07617c0.02271,0.0051 0.39104,0.11576 0.84766,0.2793c0.45662,0.16354 1.04935,0.38566 1.72656,0.64453c0.08,0.03058 0.19506,0.07779 0.27734,0.10937l-0.42578,1.05664l-3.35742,-1.55078c0.10051,-0.46574 0.22011,-0.60383 0.2168,-0.60156c-0.002,0.0014 0.03837,-0.01354 0.14844,-0.01367zM23.66992,28.62109c0.94707,0.36784 1.91721,0.74593 2.96094,1.16016l-0.5293,1.2832l-2.87891,-1.33008zM18.77539,28.80273l3.25781,1.04102l-1.2168,1.13281c-1.23026,-0.58959 -2.11133,-1.10156 -2.11133,-1.10156c-0.0437,-0.02691 -0.08941,-0.05042 -0.13672,-0.07031c0.08272,-0.36769 0.15217,-0.70343 0.20703,-1.00195zM27.56055,30.15039c1.45742,0.58119 2.08236,0.83588 2.9707,1.19531l-1.02539,1.35156c-0.05711,0.07542 -0.09165,0.1655 -0.09961,0.25977l-0.13281,1.54492c-0.87223,-0.31401 -1.87141,-0.77155 -2.92969,-1.39844zM23.04688,30.16797l3.02539,0.9668l-0.625,1.51758c-1.21191,-0.24534 -2.51078,-0.72933 -3.64844,-1.22656l1.10547,-1.02734c0.05372,-0.05013 0.09573,-0.11148 0.12305,-0.17969zM31.49414,31.73242c0.27955,0.11346 1.08232,0.4355 1.23633,0.49805l-1.02148,2.92578c-0.36688,-0.06215 -0.84801,-0.15969 -1.45898,-0.33594l0.14063,-1.63281zM18.05469,31.80469c0.85983,0.48821 3.77417,2.06708 6.78125,2.72852c2.50742,1.5848 4.84828,2.25035 6.20898,2.52734l-2.42187,6.93945h-2.7168c-0.03217,-0.00878 -0.06477,-0.01596 -0.09766,-0.02148c-7.46123,-1.11957 -10.66049,-4.79939 -11.30469,-5.58398c0.08941,-0.0595 0.19706,-0.04169 0.2832,-0.10937c1.40926,-1.10723 2.1889,-3.13459 2.86328,-5.16406c0.14818,-0.44594 0.27993,-0.88495 0.4043,-1.31641zM37.91992,35.74023c3.5172,-0.01271 5.44777,1.41186 6.05859,1.94531c-0.22117,3.53372 -3.13011,6.31445 -6.72266,6.31445h-3.33203c0.6698,-1.91255 1.86451,-5.05518 3.11133,-8.22461c0.30486,-0.02222 0.59952,-0.03413 0.88477,-0.03516z"></path></g></g></svg>