<svg xmlns="http://www.w3.org/2000/svg" xmlns:xlink="http://www.w3.org/1999/xlink" viewBox="0,0,256,256" width="100px" height="100px" fill-rule="nonzero"><g fill="#ffffff" fill-rule="nonzero" stroke="none" stroke-width="1" stroke-linecap="butt" stroke-linejoin="miter" stroke-miterlimit="10" stroke-dasharray="" stroke-dashoffset="0" font-family="none" font-weight="none" font-size="none" text-anchor="none" style="mix-blend-mode: normal"><g transform="scale(5.12,5.12)"><path d="M12.74414,4c-4.81741,0 -8.74414,3.9257 -8.74414,8.74414v24.51172c0,4.81844 3.92673,8.74414 8.74414,8.74414h24.51172c4.78248,0 8.68191,-3.87112 8.73828,-8.64062c0.00336,-0.03049 0.00531,-0.06112 0.00586,-0.0918c0.00016,-0.01042 0.00016,-0.02083 0,-0.03125v-24.49219c0,-4.81828 -3.92673,-8.74414 -8.74414,-8.74414zM21.25195,6.57813c0.13352,0.0022 2.35157,0.03561 5.21875,0.35547c2.95192,0.32932 6.4479,1.00353 8.32617,2.04688c4.13171,2.29507 6.19932,4.02258 7.1875,6.87695c-0.72974,2.33733 -0.95852,3.61589 -1.27344,5.00977c-0.84184,-1.08588 -2.2187,-2.02635 -4.67969,-1.98438c-1.44796,0.02465 -2.56723,-0.49582 -3.19727,-0.86328c0.29281,-0.41495 0.49712,-0.88008 0.64063,-1.30469c0.26437,-0.7822 0.3418,-1.46875 0.3418,-1.46875c0.01796,-0.14271 -0.0264,-0.28625 -0.12175,-0.39394c-0.09535,-0.10769 -0.23246,-0.16911 -0.3763,-0.16856c-0.25664,0.0008 -0.47101,0.19576 -0.49609,0.45117c0,0 -0.06854,0.58997 -0.29492,1.25976c-0.13425,0.39722 -0.33331,0.78909 -0.57031,1.10352c-0.06967,-0.02347 -0.14172,-0.03919 -0.21484,-0.04687c0,0 -0.76285,-0.07657 -1.71289,-0.34961c-0.95004,-0.27304 -2.02492,-0.76736 -2.56836,-1.37891c-0.82081,-0.92315 -1.82958,-1.84424 -3.16992,-2.29687c-1.34034,-0.45264 -2.97049,-0.35219 -4.71094,0.55859c-1.08645,0.56854 -1.84235,1.60757 -2.5293,2.81055c-0.68694,1.20298 -1.2824,2.60577 -1.82812,3.99414c-0.54572,1.38837 -1.04086,2.76132 -1.49219,3.86914c-0.45133,1.10782 -0.93522,1.97716 -1.10742,2.1543c-0.27201,0.27881 -0.40902,0.28392 -0.46875,0.28125c-0.05992,-0.0027 -0.13714,-0.02805 -0.24414,-0.16211c-0.214,-0.26813 -0.35725,-0.8891 0.0293,-1.46875c0.75173,-1.1273 1.61482,-3.1573 2.56055,-5.31836c0.94573,-2.16106 1.93926,-4.41691 2.63672,-5.59375c0.88372,-1.49113 1.44716,-3.50646 2.125,-5.17773c0.33892,-0.83564 0.70297,-1.57593 1.06641,-2.07031c0.35173,-0.47847 0.64935,-0.66747 0.92383,-0.72461zM22.2793,15.16406c0.51032,-0.05485 0.95414,0.01544 1.37109,0.15625c0.83391,0.28161 1.60327,0.93062 2.31445,1.73047c0.10932,0.12303 0.22548,0.23631 0.34375,0.3457c-0.21761,-0.13346 -0.44748,-0.25121 -0.70312,-0.32422c-0.66185,-0.18901 -1.42526,-0.18999 -2.12305,-0.06641c-0.69779,0.12359 -1.34171,0.33311 -1.73242,0.85352c-0.22904,0.30507 -0.25498,0.69153 -0.17578,1.02539c0.0792,0.33386 0.25218,0.64997 0.48828,0.94922c0.47221,0.5985 1.21073,1.13761 2.12109,1.39258c0.28109,0.07865 0.57814,0.10331 0.87695,0.10156c-0.21925,0.33503 -0.3114,0.70856 -0.27148,1.05664c-0.99388,-0.5109 -2.20003,-0.9952 -3.83594,-1.3418c-1.49634,-0.31672 -2.73492,-0.05926 -3.83008,0.39063c0.52111,-1.3201 1.07823,-2.62253 1.66406,-3.64844c0.59962,-1.05005 1.2497,-1.78188 1.71875,-2.02734c0.68527,-0.3586 1.26311,-0.5389 1.77344,-0.59375zM26.96484,17.90234c0.81564,0.55335 1.72365,0.89461 2.51172,1.12109c0.9926,0.28527 1.62157,0.34545 1.81445,0.36719c0.30004,0.22876 1.57151,1.14126 3.54492,1.41016c-0.12478,0.00036 -0.2496,-0.00021 -0.37305,0.00586c-0.37485,0.01842 -0.73211,0.0687 -1.04297,0.15625c-0.31086,0.08755 -0.60574,0.16402 -0.81641,0.51563c-0.18287,0.3052 -0.16775,0.61974 -0.08594,0.96094c0.08182,0.3412 0.2605,0.71056 0.55859,1.07617c0.09288,0.11392 0.21937,0.22457 0.33594,0.33594c0.0132,0.07479 0.04325,0.14559 0.08789,0.20703c0.29426,0.44924 0.11733,0.82251 -0.17578,1.05469c-0.14656,0.11609 -0.3139,0.16774 -0.44727,0.15625c-0.13336,-0.01149 -0.25696,-0.05927 -0.40234,-0.27734c-0.14682,-0.21998 -0.43954,-0.2876 -0.66797,-0.1543c-0.60704,0.35532 -1.26019,0.45048 -1.87109,0.3418c-0.11473,-0.03451 -0.22951,-0.06658 -0.34375,-0.10156c-0.15852,-0.04855 -0.29184,-0.11206 -0.4375,-0.16797c-0.73239,-0.3821 -1.31925,-1.09228 -1.53906,-2.05078c-0.03222,-0.13956 -0.12274,-0.2586 -0.24861,-0.32695c-0.12587,-0.06835 -0.275,-0.07945 -0.4096,-0.03047c-0.64722,0.23528 -1.01166,0.05497 -1.13281,-0.10156c-0.12116,-0.15653 -0.17073,-0.3679 0.24414,-0.72852c0.82538,-0.71743 2.34766,-0.25586 2.34766,-0.25586c0.17117,0.06952 0.36672,0.039 0.50856,-0.07937c0.14184,-0.11837 0.20686,-0.30531 0.1691,-0.48615c-0.03777,-0.18084 -0.17217,-0.32613 -0.34953,-0.37784c0,0 -0.44963,-0.15896 -1.04883,-0.21094c0.12371,-0.16628 0.22208,-0.35196 0.24805,-0.57617c0.0365,-0.31405 -0.06394,-0.50674 -0.18164,-0.73828c-0.11771,-0.23154 -0.28291,-0.47432 -0.48633,-0.71484c-0.09451,-0.11174 -0.19957,-0.22205 -0.31055,-0.33008zM24.5332,17.92578c0.29122,0.00744 0.5693,0.04438 0.79688,0.10938c0.25064,0.07158 0.50494,0.23839 0.74414,0.43359c-0.33062,0.15179 -0.54172,0.48311 -0.53961,0.8469c0.00211,0.36379 0.21703,0.69264 0.54938,0.8406c-0.53484,0.17774 -1.20639,0.22619 -1.63086,0.10742c-0.68563,-0.19203 -1.27193,-0.62608 -1.60547,-1.04883c-0.16677,-0.21137 -0.26543,-0.41976 -0.29883,-0.56055c-0.0334,-0.14079 -0.01046,-0.17943 0,-0.19336c0.08829,-0.1176 0.54471,-0.37104 1.10742,-0.4707c0.28136,-0.04983 0.58573,-0.07189 0.87695,-0.06445zM35.70117,20.86719c0.12244,0.00345 0.23656,0.01778 0.36328,0.01562c2.52247,-0.04302 3.16329,0.7579 3.49219,1.51563c0.3289,0.75773 0.1875,1.59375 0.1875,1.59375c-0.02749,0.12654 -0.03014,0.25721 -0.00781,0.38477c-0.48492,0.9132 -1.28514,2.93276 -1.97461,4.52344c-0.1782,-0.31594 -0.34815,-0.63747 -0.62305,-0.90039c-0.80763,-0.77283 -1.93374,-1.18915 -3.25391,-1.62891c-0.17056,-0.05682 -0.3646,-0.11018 -0.54102,-0.16602c0.21968,-0.06364 0.425,-0.16874 0.60156,-0.30859c0.35917,-0.2845 0.61057,-0.73342 0.66602,-1.22461c0.51495,0.25839 1.11458,0.48742 1.85938,0.64648c0.45974,0.09819 0.93196,-0.13398 1.16992,-0.47266c0.23796,-0.33867 0.32828,-0.75381 0.32813,-1.19141c-0.0003,-0.87518 -0.39852,-1.90871 -1.36133,-2.47852c-0.26978,-0.15961 -0.58026,-0.25225 -0.90625,-0.30859zM35.45508,21.85742c0.28765,0.04467 0.52591,0.11066 0.64258,0.17969c0.60019,0.3552 0.8709,1.05237 0.87109,1.61719c0.0001,0.28241 -0.07713,0.51653 -0.14648,0.61523c-0.06935,0.0987 -0.04282,0.09357 -0.14258,0.07227c-0.75355,-0.16093 -1.33399,-0.38675 -1.78711,-0.63477c0.6638,-0.3573 0.91498,-1.18324 0.5625,-1.84961zM19.34961,22.86133c0.36027,0.00345 0.75462,0.04663 1.18945,0.13867c2.28511,0.48415 3.51206,1.17439 4.63086,1.90625c1.11881,0.73186 2.17047,1.57391 3.83594,2.08398c1.50612,0.46128 3.01226,0.86635 4.24609,1.27734c1.23383,0.411 2.19753,0.88456 2.50391,1.17773c0.58805,0.56241 0.68573,1.83593 0.29688,3.36914c-1.83497,4.54803 -3.46366,8.84584 -4.19922,11.12891c-0.56016,-0.00046 -0.75565,0.0014 -1.09375,0.01172l4.17383,-11.96484c0.1756,-0.50265 -0.0734,-1.05476 -0.56641,-1.25586c0,0 -3.15114,-1.28129 -6.46484,-2.59961c-1.65685,-0.65916 -3.3528,-1.32793 -4.72266,-1.85156c-0.68493,-0.26182 -1.28819,-0.48846 -1.76758,-0.66016c-0.47938,-0.17169 -0.78735,-0.28267 -1.08789,-0.34961c-0.7395,-0.16414 -1.5553,-0.25303 -2.27734,0.24023c-0.72204,0.49326 -0.99755,1.32384 -1.13281,2.32617c-0.10342,0.76633 -0.53004,2.75606 -1.16016,4.65234c-0.63012,1.89628 -1.59944,3.74793 -2.20117,4.2207c-0.6872,0.53992 -1.4601,0.46704 -1.82422,0.19531c-0.18206,-0.13586 -0.28985,-0.29406 -0.32031,-0.58398c-0.03046,-0.28992 0.04222,-0.74766 0.41602,-1.37695c1.8852,-3.17552 2.73319,-6.02444 3.36133,-8.39258c0.27044,-1.01959 0.83673,-2.1192 1.67969,-2.82227c0.42148,-0.35153 0.90418,-0.62619 1.5,-0.76758c0.29791,-0.07069 0.6241,-0.10697 0.98438,-0.10352zM26.83789,23.48828c0.02193,0.0626 0.05753,0.115 0.08203,0.17578c-0.08173,-0.05502 -0.15957,-0.10531 -0.24414,-0.16211c0.05475,-0.00694 0.10663,-0.00384 0.16211,-0.01367zM32.02344,25.78516c0.0092,0.00773 0.01817,0.0156 0.02734,0.02344c-0.01687,-0.00497 -0.03194,-0.01066 -0.04883,-0.01562c0.00711,-0.00335 0.01439,-0.00441 0.02148,-0.00781zM6,27.12695l6.23242,2.16016c-0.50895,1.45278 -1.14002,2.97296 -2.12891,4.63867c-0.5362,0.90271 -0.7696,1.78872 -0.68359,2.60742c0.08601,0.8187 0.51747,1.53388 1.11328,1.97852c0.50896,0.37982 1.14139,0.49329 1.77539,0.52148v0.00195c0.01304,0.01869 0.02672,0.03693 0.04101,0.05469c0,0 2.15427,2.81035 6.64063,4.91016h-6.24609c-3.73659,0 -6.74414,-3.00658 -6.74414,-6.74414zM19.32422,27.15234c0.10998,-0.0004 0.2895,0.01346 0.56445,0.07422c0.02271,0.0051 0.39299,0.11576 0.84961,0.2793c0.45662,0.16354 1.04935,0.38566 1.72656,0.64453c0.07932,0.03032 0.19382,0.07611 0.27539,0.10742l-0.45508,1.12891l-3.33984,-1.54492c0.10308,-0.52454 0.23394,-0.67815 0.23047,-0.67578c-0.002,0.0014 0.03845,-0.01327 0.14844,-0.01367zM23.66992,28.62305c0.94696,0.36779 1.91721,0.74593 2.96094,1.16016l-0.55859,1.35352l-2.87891,-1.33203zM18.76563,28.87891l3.20508,1.02344l-1.1543,1.07422c-1.23026,-0.58959 -2.11133,-1.10156 -2.11133,-1.10156c-0.04313,-0.02615 -0.08818,-0.049 -0.13477,-0.06836c0.07526,-0.33451 0.14306,-0.6497 0.19531,-0.92773zM27.56055,30.15234c1.4584,0.5815 2.08412,0.8361 2.97266,1.19531l-1.02539,1.34961c-0.05781,0.0752 -0.09303,0.1653 -0.10156,0.25977l-0.13281,1.54492c-0.87223,-0.31401 -1.87141,-0.77155 -2.92969,-1.39844zM23.01953,30.23828l3.02539,0.9668l-0.59766,1.44727c-1.21191,-0.24534 -2.51078,-0.72933 -3.64844,-1.22656l1.10547,-1.02734c0.04867,-0.0452 0.08784,-0.09965 0.11523,-0.16016zM31.49609,31.73438c0.27897,0.11314 1.08028,0.43351 1.23438,0.49609l-1.02148,2.92773c-0.36691,-0.06214 -0.84783,-0.1616 -1.45898,-0.33789l0.14063,-1.63281zM18.05664,31.80469c0.86231,0.48951 3.77434,2.06754 6.7793,2.72852c2.50614,1.584 4.84739,2.2501 6.20898,2.52734l-2.41992,6.93945h-2.71875c-0.03217,-0.00878 -0.06477,-0.01596 -0.09766,-0.02148c-7.45825,-1.11913 -10.65639,-4.79514 -11.30273,-5.58203c0.08941,-0.0595 0.19706,-0.04169 0.2832,-0.10937c1.40926,-1.10723 2.1889,-3.13459 2.86328,-5.16406c0.14838,-0.44655 0.27979,-0.88636 0.4043,-1.31836zM37.92188,35.74219c3.51623,-0.01166 5.44597,1.41025 6.05664,1.94336c-0.22125,3.53372 -3.1312,6.31445 -6.72266,6.31445h-3.33008c0.66988,-1.91315 1.86459,-5.05546 3.11133,-8.22461c0.30477,-0.02211 0.5996,-0.03226 0.88477,-0.0332z"></path></g></g></svg>