<svg xmlns="http://www.w3.org/2000/svg" xmlns:xlink="http://www.w3.org/1999/xlink" viewBox="0,0,256,256" width="50px" height="50px" fill-rule="nonzero"><g fill="#ffffff" fill-rule="nonzero" stroke="none" stroke-width="1" stroke-linecap="butt" stroke-linejoin="miter" stroke-miterlimit="10" stroke-dasharray="" stroke-dashoffset="0" font-family="none" font-weight="none" font-size="none" text-anchor="none" style="mix-blend-mode: normal"><g transform="scale(5.12,5.12)"><path d="M24.875,3.3125c-4.69141,0.10547 -7.66016,2.00391 -8.9375,4.9375c-1.21484,2.79297 -0.96094,6.3125 -0.09375,9.96875c-0.46484,0.54688 -0.84766,1.31641 -0.75,2.46875v0.0625c0.16797,1.21875 0.53516,2.07813 1,2.6875c0.22266,0.28906 0.53906,0.30469 0.8125,0.46875c0.24219,1.36328 0.78516,2.66406 1.40625,3.6875c0.03125,0.14844 0.09375,0.28516 0.1875,0.40625c0,0 0.10156,0.12891 0.125,0.15625c0.3125,0.46875 0.46875,1.12109 0.46875,1.84375c0,0.76953 -0.01172,1.48438 -0.09375,2.28125c-0.30078,0.75781 -1.05078,1.36328 -2.25,1.96875c-1.25391,0.63281 -2.89453,1.21484 -4.5625,1.9375c-1.66797,0.72266 -3.35937,1.58984 -4.71875,2.96875c-1.35937,1.37891 -2.33203,3.28906 -2.46875,5.78125l-0.0625,1.0625h40.125l-0.0625,-1.0625c-0.13672,-2.49219 -1.08594,-4.39844 -2.4375,-5.78125c-1.35156,-1.38281 -3.05078,-2.24609 -4.71875,-2.96875c-1.66797,-0.72266 -3.32031,-1.30078 -4.59375,-1.9375c-1.23437,-0.61719 -2.00781,-1.24609 -2.34375,-2.03125c-0.07812,-0.94531 -0.09375,-1.69141 -0.09375,-2.53125c0,-0.53516 0.18359,-1.01953 0.5,-1.5c0.00781,-0.01172 0.02344,-0.01953 0.03125,-0.03125c0.00391,-0.00781 0.0625,-0.0625 0.0625,-0.0625c0.125,-0.12891 0.21094,-0.29297 0.25,-0.46875c0.60547,-1.03906 1.10938,-2.35937 1.34375,-3.6875c0.3125,-0.16406 0.66406,-0.18359 0.90625,-0.5c0.48047,-0.62891 0.76172,-1.52344 0.875,-2.75c0.08984,-1.05859 -0.21484,-1.82812 -0.6875,-2.40625c0.51953,-1.60156 1.13672,-4.16406 0.9375,-6.78125c-0.10937,-1.4375 -0.48828,-2.87109 -1.34375,-4.0625c-0.77344,-1.07812 -2.02344,-1.81641 -3.59375,-2.15625c-1.05859,-1.41406 -2.98047,-1.96875 -5.1875,-1.96875zM24.90625,5.3125c0.01172,0 0.01953,0 0.03125,0c1.99609,0.00781 3.27344,0.57031 3.6875,1.28125l0.25,0.4375l0.5,0.0625c1.375,0.19141 2.12891,0.72266 2.6875,1.5c0.55859,0.77734 0.87891,1.86328 0.96875,3.0625c0.18359,2.40234 -0.51172,5.21875 -0.96875,6.5l-0.3125,0.84375l0.78125,0.40625c-0.00781,0.02734 0.32031,0.35938 0.28125,1.09375c0,0.01563 0,0.01563 0,0.03125c-0.09375,0.94141 -0.33594,1.47266 -0.5,1.6875c-0.16797,0.21875 -0.25391,0.1875 -0.21875,0.1875h-0.875l-0.125,0.875c-0.17187,1.29688 -0.83203,2.92969 -1.40625,3.75h-0.03125c-0.05859,0.08594 -0.10156,0.1875 -0.15625,0.28125c-0.26172,0.30469 -0.65625,0.70703 -1.21875,1.1875c-0.93359,0.79688 -2.17187,1.5 -3.28125,1.5c-1.10156,0 -2.35156,-0.73828 -3.3125,-1.5625c-0.83203,-0.71484 -1.32812,-1.32812 -1.46875,-1.5c-0.00391,-0.00781 0.00391,-0.02344 0,-0.03125c-0.58984,-0.85156 -1.26562,-2.34375 -1.4375,-3.625l-0.09375,-0.875h-0.8125c-0.03516,-0.01562 -0.12891,-0.06641 -0.21875,-0.1875c-0.17578,-0.23047 -0.42578,-0.76953 -0.5625,-1.6875c0,-0.01953 0,-0.01172 0,-0.03125c-0.00391,-0.01562 0.00391,-0.01562 0,-0.03125c-0.01562,-0.75781 0.45313,-1.17969 0.375,-1.125l0.5625,-0.40625l-0.15625,-0.6875c-0.92187,-3.64453 -1.06641,-6.94531 -0.09375,-9.1875c0.97266,-2.23437 2.94141,-3.64844 7.125,-3.75zM21.09375,30.53125c1.05469,0.77734 2.375,1.46875 3.90625,1.46875c1.5,0 2.78516,-0.65625 3.8125,-1.40625c0.00391,0.60938 0.02344,1.23438 0.09375,2v0.125l0.0625,0.125c0.17578,0.46094 0.42578,0.85156 0.71875,1.21875c-0.01172,0.03906 -0.02344,0.08203 -0.03125,0.125c0,0 -0.23828,0.65625 -0.9375,1.375c-0.69922,0.71875 -1.78516,1.4375 -3.71875,1.4375c-1.92578,0 -3.05078,-0.75 -3.78125,-1.5c-0.73047,-0.75 -0.96875,-1.4375 -0.96875,-1.4375c0.28906,-0.375 0.52734,-0.77734 0.6875,-1.25l0.0625,-0.1875c0.08594,-0.75781 0.09375,-1.44141 0.09375,-2.09375zM31.25,35.4375c0.35156,0.22656 0.71484,0.4375 1.09375,0.625c1.46094,0.72656 3.11719,1.28906 4.6875,1.96875c1.57031,0.67969 3.03516,1.44922 4.09375,2.53125c0.84375,0.86328 1.35156,2.01172 1.625,3.4375h-35.5c0.27344,-1.42578 0.77734,-2.57422 1.625,-3.4375c1.0625,-1.08203 2.55469,-1.85156 4.125,-2.53125c1.57031,-0.67969 3.21094,-1.23828 4.65625,-1.96875c0.35938,-0.18359 0.72656,-0.375 1.0625,-0.59375c0.22266,0.40234 0.56641,0.92578 1.0625,1.4375c1.01953,1.05078 2.74609,2.09375 5.21875,2.09375c2.46484,0 4.15625,-1.03125 5.15625,-2.0625c0.54688,-0.5625 0.87891,-1.08594 1.09375,-1.5z"></path></g></g></svg>