<svg xmlns="http://www.w3.org/2000/svg" xmlns:xlink="http://www.w3.org/1999/xlink" viewBox="0,0,256,256" width="50px" height="50px" fill-rule="nonzero"><g fill="#ff2848" fill-rule="nonzero" stroke="none" stroke-width="1" stroke-linecap="butt" stroke-linejoin="miter" stroke-miterlimit="10" stroke-dasharray="" stroke-dashoffset="0" font-family="none" font-weight="none" font-size="none" text-anchor="none" style="mix-blend-mode: normal"><g transform="scale(5.12,5.12)"><path d="M25,2c-12.67336,0 -23,10.32664 -23,23c0,12.67336 10.32664,23 23,23c12.67336,0 23,-10.32664 23,-23c0,-12.67336 -10.32664,-23 -23,-23zM25,4c11.58864,0 21,9.41136 21,21c0,11.58864 -9.41136,21 -21,21c-11.58864,0 -21,-9.41136 -21,-21c0,-11.58864 9.41136,-21 21,-21zM25,6c-4.47632,0 -8.59836,1.57028 -11.84766,4.16992l-0.87109,0.69727l26.85156,26.85156l0.69727,-0.87109c2.59965,-3.24929 4.16992,-7.37133 4.16992,-11.84766c0,-10.4674 -8.5326,-19 -19,-19zM25,8c9.3826,0 17,7.6174 17,17c0,3.59687 -1.25181,6.84225 -3.16602,9.5918l-23.42578,-23.42578c2.74955,-1.91421 5.99493,-3.16602 9.5918,-3.16602zM10.86719,12.28125l-0.69727,0.87109c-2.59965,3.24929 -4.16992,7.37133 -4.16992,11.84766c0,10.4674 8.5326,19 19,19c4.47632,0 8.59836,-1.57028 11.84766,-4.16992l0.87109,-0.69727zM11.16602,15.4082l23.42578,23.42578c-2.74955,1.91421 -5.99493,3.16602 -9.5918,3.16602c-9.3826,0 -17,-7.6174 -17,-17c0,-3.59687 1.25181,-6.84225 3.16602,-9.5918z"></path></g></g></svg>