<svg xmlns="http://www.w3.org/2000/svg" xmlns:xlink="http://www.w3.org/1999/xlink" viewBox="0,0,256,256" width="50px" height="50px" fill-rule="nonzero"><g fill="#ffffff" fill-rule="nonzero" stroke="none" stroke-width="1" stroke-linecap="butt" stroke-linejoin="miter" stroke-miterlimit="10" stroke-dasharray="" stroke-dashoffset="0" font-family="none" font-weight="none" font-size="none" text-anchor="none" style="mix-blend-mode: normal"><g transform="scale(5.12,5.12)"><path d="M37,0c-4.40625,0 -8,3.59375 -8,8c0,4.40625 3.59375,8 8,8c4.40625,0 8,-3.59375 8,-8c0,-4.40625 -3.59375,-8 -8,-8zM21.5,1c-3.57812,0 -6.5,2.92188 -6.5,6.5c0,3.57813 2.92188,6.5 6.5,6.5c3.57813,0 6.5,-2.92187 6.5,-6.5c0,-3.57812 -2.92187,-6.5 -6.5,-6.5zM37,2c3.32422,0 6,2.67578 6,6c0,3.32422 -2.67578,6 -6,6c-3.32422,0 -6,-2.67578 -6,-6c0,-3.32422 2.67578,-6 6,-6zM9,3c-2.75,0 -5,2.25 -5,5c0,2.75 2.25,5 5,5c2.75,0 5,-2.25 5,-5c0,-2.75 -2.25,-5 -5,-5zM21.5,3c2.49609,0 4.5,2.00391 4.5,4.5c0,2.49609 -2.00391,4.5 -4.5,4.5c-2.49609,0 -4.5,-2.00391 -4.5,-4.5c0,-2.49609 2.00391,-4.5 4.5,-4.5zM9,5c1.66797,0 3,1.33203 3,3c0,1.66797 -1.33203,3 -3,3c-1.66797,0 -3,-1.33203 -3,-3c0,-1.66797 1.33203,-3 3,-3zM9,15c-3.84375,0 -7,3.15625 -7,7v12c0,0.55078 0.44922,1 1,1h10v5c0,0.55078 0.44922,1 1,1h10v8c0,0.55078 0.44922,1 1,1h22c0.55078,0 1,-0.44922 1,-1v-18c0,-6.63672 -5.36328,-12 -12,-12c-2.5625,0 -4.82031,0.91406 -6.74609,2.26953c-1.28906,-3.08594 -4.25391,-5.26953 -7.75391,-5.26953c-2.55469,0 -4.76172,1.13281 -6.3125,2.85156c-1.16406,-2.28125 -3.5,-3.85156 -6.1875,-3.85156zM9,17c2.41797,0 4.50391,1.75781 4.91797,4.07813c0.07031,0.41406 0.39844,0.73828 0.81641,0.80859c0.41406,0.07031 0.82813,-0.125 1.03516,-0.49609c1.14063,-2.01172 3.19922,-3.39062 5.73047,-3.39062c3.04297,0 5.63672,2.08203 6.32813,4.9375c0.08203,0.33984 0.33984,0.61328 0.67578,0.71875c0.33594,0.10156 0.69922,0.02344 0.96484,-0.21094c1.71875,-1.53906 3.96875,-2.44531 6.53125,-2.44531c5.56641,0 10,4.43359 10,10v17h-20v-8c0,-0.55078 -0.44922,-1 -1,-1h-10v-5c0,-0.55078 -0.44922,-1 -1,-1h-10v-11c0,-2.75391 2.24609,-5 5,-5z"></path></g></g></svg>