<svg xmlns="http://www.w3.org/2000/svg" xmlns:xlink="http://www.w3.org/1999/xlink" viewBox="0,0,256,256" width="50px" height="50px" fill-rule="nonzero"><g fill="#ffffff" fill-rule="nonzero" stroke="none" stroke-width="1" stroke-linecap="butt" stroke-linejoin="miter" stroke-miterlimit="10" stroke-dasharray="" stroke-dashoffset="0" font-family="none" font-weight="none" font-size="none" text-anchor="none" style="mix-blend-mode: normal"><g transform="scale(5.12,5.12)"><path d="M5,4c-0.55226,0.00006 -0.99994,0.44774 -1,1v40c0.00006,0.55226 0.44774,0.99994 1,1h40c0.55226,-0.00006 0.99994,-0.44774 1,-1v-40c-0.00006,-0.55226 -0.44774,-0.99994 -1,-1zM6,6h38v38h-38zM12.81836,9c-2.64468,0 -4.81836,2.15213 -4.81836,4.78906c0,5.1887 5.77384,7.66774 7.36328,8.98242l0.63672,0.52539l0.63672,-0.52539c1.58928,-1.31455 7.36328,-3.7929 7.36328,-8.98242c0,-2.63693 -2.17367,-4.78906 -4.81836,-4.78906c-1.2612,0 -2.32001,0.5875 -3.18164,1.38281c-0.86163,-0.79531 -1.92044,-1.38281 -3.18164,-1.38281zM26,9v2h16v-2zM12.81836,11c0.9904,0 1.84729,0.50044 2.35156,1.25391l0.83008,1.24024l0.83008,-1.24024c0.50428,-0.75347 1.36116,-1.25391 2.35156,-1.25391c1.57131,0 2.81836,1.242 2.81836,2.78906c0,3.37427 -3.66927,5.24777 -6,6.97266c-2.33062,-1.72495 -6,-3.59947 -6,-6.97266c0,-1.54706 1.24705,-2.78906 2.81836,-2.78906zM26,15v2h16v-2zM26,21v2h16v-2zM8,27v2h16v-2zM26,27v2h16v-2zM8,33v2h16v-2zM26,33v2h16v-2zM8,39v2h16v-2zM26,39v2h16v-2z"></path></g></g></svg>